<svg id="Capa_1" data-name="Capa 1" xmlns="http://www.w3.org/2000/svg" viewBox="0 0 191.13 67.89"><defs><style>.cls-1{fill:#f4f4f4;}</style></defs><title>mo_small_1</title><path class="cls-1" d="M174.15,50.61l-.06-.3c-51.81-1.27-103.62-1-155.45-.24a2.26,2.26,0,0,0,1.17.31c11.46,0,22.92,0,34.37-.13,30-.37,60-.4,90,.15,9.61.17,19.23.24,28.84.34A9.2,9.2,0,0,0,174.15,50.61Zm-49-28.1-.8-1.36-3.82,2.31.11.18Zm59.15.6c-.51-.44-1.1-1.17-1.3-1.08-1.25.58-2.41,1.35-3.6,2l.1.17Z"/><path class="cls-1" d="M159.62,37.52l7-14.41.27,0a8.24,8.24,0,0,1,.21,1q.64,6.54,1.25,13.08c0,.32.08.65.13,1,.23,1.44.56,1.77,2,2a.76.76,0,0,1,.48.27h-4.27c-.33-4.27-.64-8.39-.95-12.51l-.26-.09-6.14,12.51-.37,0L153,27.91l-.17,0c-.24,2.35-.49,4.7-.72,7.05-.11,1-.19,2-.26,3-.12,1.61-.11,1.61,1.34,2.17h-4.51c.17-.14.25-.26.33-.26.92,0,1.25-.57,1.35-1.38q.45-3.74.92-7.45c.3-2.45.59-4.9.9-7.35a5.38,5.38,0,0,1,.2-.79l.3-.05C155,27.71,157.23,32.5,159.62,37.52Z"/><path class="cls-1" d="M174.15,50.61a9.2,9.2,0,0,1-1.15.13c-9.61-.1-19.23-.17-28.84-.34-30-.55-60-.52-90-.15-11.45.15-22.91.1-34.37.13a2.26,2.26,0,0,1-1.17-.31c51.83-.74,103.64-1,155.45.24Z"/><path class="cls-1" d="M53.14,39.77h-5c1.41-.37,1.22-1.53,1.22-2.52,0-3.23,0-6.45,0-9.68,0-1.93,0-1.93-1.6-2.53,0-.05.06-.15.09-.15,2.39,0,4.81-.09,7.18.17,3.35.36,4.56,3.47,2.55,6.18-.45.6-1,1.13-1.65,1.88,1.73,1.85,3.44,3.79,5.29,5.59a8,8,0,0,0,2.38,1c-2.12.15-4,.33-5.42-1.41-1-1.22-2.07-2.39-3-3.67A2.16,2.16,0,0,0,53,33.54a17.25,17.25,0,0,1-1.79,0c.09,1.76.06,3.47.31,5.13C51.61,39.1,52.55,39.38,53.14,39.77ZM51.3,29.14h0c0,.33,0,.65,0,1,0,2.75.06,2.8,2.86,2.69a2.32,2.32,0,0,0,2.22-1.64c1.29-3.27-.92-6-4.37-5.5a1,1,0,0,0-.66.72C51.25,27.3,51.3,28.22,51.3,29.14Z"/><path class="cls-1" d="M111.93,25.4h4.38c-1.5.37-1.26,1.55-1.27,2.59-.05,3.55-.08,7.11-.12,10.66a3.41,3.41,0,0,1-.17,1.25,161.25,161.25,0,0,1-11.64-11.73v1.38c0,2.47.08,4.93.14,7.4,0,1.94,0,1.94,1.92,2.69h-4.76c1.47-.68,1.52-.68,1.55-2.32.07-3.66.09-7.31.14-11,0-.44.07-.88.11-1.32l.3-.15L113.86,37c0-.44.06-.68.06-.92,0-2.57-.07-5.14-.1-7.71C113.79,26.26,113.79,26.26,111.93,25.4Z"/><path class="cls-1" d="M180.62,25.81c4.77.06,7.87,3,7.81,7.42a7.81,7.81,0,0,1-8.26,7.64,7.29,7.29,0,0,1-7.57-7.72C172.65,28.94,176.12,25.76,180.62,25.81Zm5.31,10.31a9.38,9.38,0,0,0,.07-5,9,9,0,0,0-.38-1.14,5.84,5.84,0,0,0-10.05-1,8.29,8.29,0,0,0,1.22,9.51c2.58,2.46,7.11,1.93,8.66-1.13A7.41,7.41,0,0,0,185.93,36.12Z"/><path class="cls-1" d="M7.48,30.78c0,2.33,0,4.59,0,6.85a1.3,1.3,0,0,0,1.34,1.23,23.51,23.51,0,0,0,3.14,0c1.22-.08,1.7-1,1.82-2.12l.36.13c-.16.91-.28,1.85-.53,2.74-.05.18-.62.3-1,.3-1.94,0-3.88-.09-5.82-.13-1,0-2.05,0-3.17-.09,1.81-.24,1.62-1.58,1.6-2.75,0-3.95-.13-7.9-.2-11.84C5,22.73,5,22.73,2.7,21.9H13.14l-.21,2.79c-.47-2.07-2.12-1.77-3.54-1.85-.72,0-1.43,0-2.13,0,0,2.18,0,4.31,0,6.44,0,.17.29.5.44.49,1.72,0,3.48.37,5.22-.5l-.26,3.18-.24.23c0-2-1.37-1.86-2.59-1.9C9,30.76,8.23,30.78,7.48,30.78Z"/><path class="cls-1" d="M80.08,31.31A17.88,17.88,0,0,1,82,32.57,3.89,3.89,0,0,1,81.27,39a10.53,10.53,0,0,1-2.15.67,2.9,2.9,0,0,1-.78.05c-1.77,0-3.54,0-5.4-.09,1.48-.43,1.25-1.63,1.27-2.63.07-3.28.09-6.57.09-9.86,0-1.58-.07-1.62-1.71-2a4,4,0,0,1,.64-.14c1.61,0,3.22,0,4.83,0a5.64,5.64,0,0,1,1.36.18c2.57.67,3.32,3.08,1.59,5.09C80.71,30.67,80.39,31,80.08,31.31Zm-3.94.81c0,1.94,0,3.91,0,5.87a.9.9,0,0,0,.31.59c1.38,1.22,4.45.28,4.91-1.51C82,34.74,80.52,31.39,76.14,32.12Zm0-.71A11.42,11.42,0,0,0,79.23,31c1.07-.48,1.31-2.51.68-3.75a2.9,2.9,0,0,0-3.35-1.43.69.69,0,0,0-.42.45C76.11,27.85,76.12,29.49,76.12,31.41Z"/><path class="cls-1" d="M44.48,36.45c-.2.91-.36,1.84-.63,2.73a1.08,1.08,0,0,1-.73.56c-3.41.61-6.78.72-9.82-1.27a7.23,7.23,0,0,1-3.25-7.72,6.9,6.9,0,0,1,5.58-5.95c2.76-.67,5.5-.17,8.23.29.14,0,.36.23.36.36,0,1.09,0,2.19,0,3.45a3,3,0,0,1-.43-.26c-.15-1.91-1.38-2.7-3.09-3.05a10.48,10.48,0,0,0-5.07.12,4.72,4.72,0,0,0-3.17,2.89A7.61,7.61,0,0,0,39,39.08a12.1,12.1,0,0,0,2.17,0,2.84,2.84,0,0,0,2.73-2.18,3.69,3.69,0,0,1,.24-.49Z"/><path class="cls-1" d="M92,24.55c.35.79.61,1.34.84,1.91,1.4,3.5,2.78,7,4.2,10.52.48,1.2,1,2.44,2.58,2.62H95.92c-.27-.85-.47-1.61-.75-2.34-1.1-2.94-1.11-2.93-4.22-2.92-1.81,0-1.82,0-2.48,1.7-.22.58-.44,1.16-.65,1.75-.27.76-.51,1.52.68,1.8H84.3a.58.58,0,0,1,0-.15c1.5-.11,2-1.18,2.51-2.4,1.47-3.76,3-7.51,4.51-11.25C91.47,25.44,91.67,25.12,92,24.55Zm-.28,3.52-.27,0-2,5.37h4.22Z"/><path class="cls-1" d="M129.61,39.92H125.3c.26-.19.34-.31.43-.31a2.14,2.14,0,0,0,2-1.64q2.31-5.78,4.64-11.53c.17-.41.36-.82.66-1.47.31.6.54,1,.7,1.37,1.46,3.62,2.91,7.26,4.37,10.88.52,1.29,1,2.6,2.7,2.83H137c-.13-.6-.2-1.09-.35-1.55a16.33,16.33,0,0,0-.62-1.56c-.91-2.21-.91-2.21-3.33-2.24s-2.4,0-3.27,2.24c-.19.49-.36,1-.52,1.49C128.66,39.12,128.69,39.68,129.61,39.92Zm3.18-11.48-.23,0-2,5.36h4.21Z"/><path class="cls-1" d="M25.69,27.23c-1.2-1.79-2.5-2.4-4.45-2-1.8.39-2.52,2.15-1.3,3.52a24.1,24.1,0,0,0,3,2.41,22.73,22.73,0,0,1,2.45,2.12,3.82,3.82,0,0,1,.78,4.14,3.63,3.63,0,0,1-3.3,2.45,32.93,32.93,0,0,1-4.21-.16c-.71-.05-1-.51-.94-1.23s0-1.34,0-2l.3,0a2.12,2.12,0,0,0,.19.57,5.72,5.72,0,0,0,1.24,1.66,4.06,4.06,0,0,0,3.8.23,2.47,2.47,0,0,0,.88-4,30,30,0,0,0-2.81-2.31,22,22,0,0,1-2.49-2.22,3.49,3.49,0,0,1,1.74-5.8,9.45,9.45,0,0,1,4.78.1.62.62,0,0,1,.35.47C25.71,25.86,25.69,26.55,25.69,27.23Z"/><path class="cls-1" d="M64.29,25H68.8c-1.25.29-1.29,1.19-1.28,2.19,0,3.28,0,6.57,0,9.86,0,1.92,0,1.92,1.71,2.56H64.3c1.21-.29,1.2-1.28,1.21-2.22,0-3.48,0-7,.08-10.44C65.6,26,65.42,25.26,64.29,25Z"/><path class="cls-1" d="M124.12,39.82h-4.73c1.21-.23,1.16-1.14,1.18-2,.05-3.49.08-7,.13-10.45,0-.92-.14-1.67-1.26-1.86h4.4c-.45.34-.94.53-1.14.89a3,3,0,0,0-.15,1.35c0,3.13-.07,6.25-.06,9.37C122.49,38.32,122.28,39.7,124.12,39.82Z"/><path class="cls-1" d="M125.13,22.51l-4.51,1.13-.11-.18,3.82-2.31Z"/><path class="cls-1" d="M184.28,23.11l-4.8,1.14-.1-.17c1.19-.7,2.35-1.47,3.6-2C183.18,21.94,183.77,22.67,184.28,23.11Z"/></svg>