<svg id="Capa_1" data-name="Capa 1" xmlns="http://www.w3.org/2000/svg" viewBox="0 0 191.13 135.17"><defs><style>.cls-1{fill:#f4f4f4;}</style></defs><title>mo_small_2</title><path class="cls-1" d="M174.15,47.17l-.06-.3c-51.81-1.27-103.62-1-155.45-.24a2.26,2.26,0,0,0,1.17.31c11.46,0,22.92,0,34.37-.13,30-.37,60-.4,90,.15,9.61.17,19.23.23,28.84.34A9.2,9.2,0,0,0,174.15,47.17Zm-49-28.1-.8-1.36L120.51,20l.11.18Zm59.15.6c-.51-.44-1.1-1.17-1.3-1.08-1.25.58-2.41,1.35-3.6,2.05l.1.17Z"/><path class="cls-1" d="M159.62,34.08l7-14.41.27,0a8.24,8.24,0,0,1,.21,1q.64,6.54,1.25,13.07c0,.33.08.66.13,1,.23,1.44.56,1.77,2,2a.76.76,0,0,1,.48.27h-4.27c-.33-4.27-.64-8.39-.95-12.51l-.26-.09-6.14,12.51-.37,0L153,24.47l-.17,0c-.24,2.35-.49,4.7-.72,7.05-.11,1-.19,2-.26,3.05-.12,1.61-.11,1.61,1.34,2.17h-4.51c.17-.14.25-.26.33-.26.92,0,1.25-.57,1.35-1.38q.45-3.74.92-7.45c.3-2.45.59-4.9.9-7.35a5.38,5.38,0,0,1,.2-.79l.3-.05C155,24.27,157.23,29.06,159.62,34.08Z"/><path class="cls-1" d="M174.15,47.17a9.2,9.2,0,0,1-1.15.13c-9.61-.11-19.23-.17-28.84-.34-30-.55-60-.52-90-.15-11.45.15-22.91.1-34.37.13a2.26,2.26,0,0,1-1.17-.31c51.83-.74,103.64-1,155.45.24Z"/><path class="cls-1" d="M53.14,36.33h-5c1.41-.37,1.22-1.53,1.22-2.53,0-3.22,0-6.44,0-9.67,0-1.93,0-1.93-1.6-2.54,0-.05.06-.14.09-.14,2.39,0,4.81-.09,7.18.17,3.35.36,4.56,3.47,2.55,6.18-.45.6-1,1.13-1.65,1.88,1.73,1.85,3.44,3.79,5.29,5.59a8,8,0,0,0,2.38,1c-2.12.15-4,.33-5.42-1.41-1-1.23-2.07-2.4-3-3.67a2.18,2.18,0,0,0-2.2-1.1,14.56,14.56,0,0,1-1.79,0c.09,1.76.06,3.46.31,5.13C51.61,35.66,52.55,35.94,53.14,36.33ZM51.3,25.7h0c0,.33,0,.65,0,1,0,2.75.06,2.8,2.86,2.69a2.34,2.34,0,0,0,2.22-1.64c1.29-3.27-.92-6-4.37-5.5a1,1,0,0,0-.66.71C51.25,23.86,51.3,24.78,51.3,25.7Z"/><path class="cls-1" d="M111.93,22h4.38c-1.5.38-1.26,1.56-1.27,2.6-.05,3.55-.08,7.11-.12,10.66a3.43,3.43,0,0,1-.17,1.25,161.25,161.25,0,0,1-11.64-11.73v1.38c0,2.46.08,4.93.14,7.4,0,1.94,0,1.94,1.92,2.69h-4.76c1.47-.69,1.52-.69,1.55-2.33.07-3.65.09-7.3.14-10.95,0-.44.07-.88.11-1.32l.3-.15,11.35,12.06c0-.44.06-.68.06-.92,0-2.57-.07-5.14-.1-7.71C113.79,22.82,113.79,22.82,111.93,22Z"/><path class="cls-1" d="M180.62,22.37c4.77.06,7.87,3,7.81,7.42a7.81,7.81,0,0,1-8.26,7.64,7.3,7.3,0,0,1-7.57-7.72C172.65,25.5,176.12,22.32,180.62,22.37Zm5.31,10.31a9.38,9.38,0,0,0,.07-5,9,9,0,0,0-.38-1.14,5.84,5.84,0,0,0-10.05-1,8.29,8.29,0,0,0,1.22,9.51c2.58,2.46,7.11,1.93,8.66-1.13A7.41,7.41,0,0,0,185.93,32.68Z"/><path class="cls-1" d="M7.48,27.34c0,2.33,0,4.59,0,6.85a1.3,1.3,0,0,0,1.34,1.23,23.51,23.51,0,0,0,3.14,0c1.22-.08,1.7-1,1.82-2.12l.36.13c-.16.91-.28,1.84-.53,2.74-.05.18-.62.3-1,.3-1.94,0-3.88-.09-5.82-.13-1,0-2.05,0-3.17-.09,1.81-.24,1.62-1.58,1.6-2.75,0-3.95-.13-7.9-.2-11.84C5,19.29,5,19.29,2.7,18.46H13.14l-.21,2.79c-.47-2.07-2.12-1.77-3.54-1.85-.72,0-1.43,0-2.13,0,0,2.18,0,4.31,0,6.43,0,.18.29.5.44.5,1.72,0,3.48.37,5.22-.5L12.68,29l-.24.24c0-2-1.37-1.86-2.59-1.9C9,27.32,8.23,27.34,7.48,27.34Z"/><path class="cls-1" d="M80.08,27.87A17.88,17.88,0,0,1,82,29.13a3.89,3.89,0,0,1-.74,6.45,11.19,11.19,0,0,1-2.15.67,2.9,2.9,0,0,1-.78,0c-1.77,0-3.54,0-5.4-.09,1.48-.43,1.25-1.63,1.27-2.63.07-3.29.09-6.57.09-9.86,0-1.59-.07-1.62-1.71-2a4,4,0,0,1,.64-.14c1.61,0,3.22,0,4.83,0a6.19,6.19,0,0,1,1.36.19c2.57.67,3.32,3.08,1.59,5.09C80.71,27.23,80.39,27.55,80.08,27.87Zm-3.94.81c0,1.94,0,3.91,0,5.87a.9.9,0,0,0,.31.59c1.38,1.22,4.45.28,4.91-1.51C82,31.29,80.52,27.94,76.14,28.68Zm0-.71a11.42,11.42,0,0,0,3.11-.46c1.07-.48,1.31-2.51.68-3.75a2.91,2.91,0,0,0-3.35-1.44c-.18.07-.41.3-.42.45C76.11,24.41,76.12,26.05,76.12,28Z"/><path class="cls-1" d="M44.48,33c-.2.91-.36,1.84-.63,2.73a1.11,1.11,0,0,1-.73.56c-3.41.61-6.78.72-9.82-1.27a7.23,7.23,0,0,1-3.25-7.72,6.89,6.89,0,0,1,5.58-5.95c2.76-.67,5.5-.17,8.23.28.14,0,.36.24.36.37,0,1.09,0,2.19,0,3.45-.33-.2-.42-.23-.43-.27-.15-1.9-1.38-2.69-3.09-3.05a10.61,10.61,0,0,0-5.07.13,4.72,4.72,0,0,0-3.17,2.89A7.61,7.61,0,0,0,39,35.64a13.11,13.11,0,0,0,2.17,0,2.84,2.84,0,0,0,2.73-2.18,3.17,3.17,0,0,1,.24-.49Z"/><path class="cls-1" d="M92,21.11c.35.79.61,1.34.84,1.91,1.4,3.5,2.78,7,4.2,10.52.48,1.2,1,2.43,2.58,2.62H95.92c-.27-.85-.47-1.61-.75-2.34-1.1-2.94-1.11-2.94-4.22-2.92-1.81,0-1.82,0-2.48,1.7-.22.58-.44,1.16-.65,1.75-.27.76-.51,1.52.68,1.8H84.3a.58.58,0,0,1,0-.15c1.5-.11,2-1.18,2.51-2.4,1.47-3.77,3-7.51,4.51-11.25C91.47,22,91.67,21.68,92,21.11Zm-.28,3.51-.27,0-2,5.37h4.22Z"/><path class="cls-1" d="M129.61,36.48H125.3c.26-.2.34-.31.43-.31a2.14,2.14,0,0,0,2-1.64Q130,28.76,132.35,23c.17-.41.36-.82.66-1.47.31.6.54,1,.7,1.37,1.46,3.62,2.91,7.26,4.37,10.88.52,1.29,1,2.6,2.7,2.83H137c-.13-.6-.2-1.09-.35-1.56s-.4-1-.62-1.55c-.91-2.21-.91-2.21-3.33-2.24s-2.4,0-3.27,2.24c-.19.49-.36,1-.52,1.49C128.66,35.68,128.69,36.24,129.61,36.48ZM132.79,25l-.23,0-2,5.36h4.21C134.1,28.51,133.45,26.75,132.79,25Z"/><path class="cls-1" d="M25.69,23.79c-1.2-1.79-2.5-2.4-4.45-2-1.8.39-2.52,2.15-1.3,3.52a24.1,24.1,0,0,0,3,2.41,22.73,22.73,0,0,1,2.45,2.12A3.82,3.82,0,0,1,26.13,34a3.66,3.66,0,0,1-3.3,2.45,34.86,34.86,0,0,1-4.21-.16c-.71,0-1-.51-.94-1.23s0-1.34,0-2H18a2.12,2.12,0,0,0,.19.57,5.72,5.72,0,0,0,1.24,1.66,4.06,4.06,0,0,0,3.8.23,2.47,2.47,0,0,0,.88-4,30,30,0,0,0-2.81-2.31A22,22,0,0,1,18.8,27a3.49,3.49,0,0,1,1.74-5.8,9.45,9.45,0,0,1,4.78.1.62.62,0,0,1,.35.47C25.71,22.42,25.69,23.11,25.69,23.79Z"/><path class="cls-1" d="M64.29,21.59H68.8c-1.25.29-1.29,1.19-1.28,2.19,0,3.28,0,6.57,0,9.85,0,1.93,0,1.93,1.71,2.57H64.3c1.21-.29,1.2-1.28,1.21-2.22,0-3.48,0-7,.08-10.44C65.6,22.58,65.42,21.82,64.29,21.59Z"/><path class="cls-1" d="M124.12,36.38h-4.73c1.21-.23,1.16-1.14,1.18-2,.05-3.49.08-7,.13-10.46,0-.91-.14-1.66-1.26-1.85h4.4c-.45.34-.94.53-1.14.89a3,3,0,0,0-.15,1.35c0,3.12-.07,6.25-.06,9.37C122.49,34.88,122.28,36.26,124.12,36.38Z"/><path class="cls-1" d="M125.13,19.07l-4.51,1.13-.11-.18,3.82-2.31Z"/><path class="cls-1" d="M184.28,19.67l-4.8,1.14-.1-.17c1.19-.7,2.35-1.47,3.6-2.05C183.18,18.5,183.77,19.23,184.28,19.67Z"/></svg>